# xmcd
#
# Track frame offsets:
#	150
#	17644
#	35623
#	52531
#	67049
#	81318
#	92386
#	109594
#	132162
#	147295
#	162847
#	179789
#	193075
#	206913
#	221645
#	234506
#	246181
#	254057
#
# Disc length: 3566 seconds
#
# Revision: 0
# Processed by: cddbd v1.5.2PL0 Copyright (c) Steve Scherf et al.
# Submitted via: audiograbber 1.83.01
#
DISCID=070dec12
DTITLE=Mr. John Kampen and friends - Songs for Carsten vol.2
DYEAR=1900
DGENRE=Country
TTITLE0=Zusammenstehn 2012-Mr. John Kampen
TTITLE1=Geisterspiele-Du Saitenwind
TTITLE2=A Beautiful Memory-Eddy Gee
TTITLE3=Too Old To Die Young-Mel D.
TTITLE4=Take Some Time-Hermann Lammers Meyer
TTITLE5=Durch den wilden Süden-Silverados
TTITLE6=Ice Road Trucker-Highway Bandit
TTITLE7=Sunday Morning Coming Down-Mr. John Kampen
TTITLE8=Suds In The Bucket-Tamy Chalee
TTITLE9=Heartaches By Thed Number-Mr. John Kampen
TTITLE10=Cowboyschorle Blues-Silverados
TTITLE11=Ein Sommer lang-Barbara Schiller
TTITLE12=If You Sais I Have A Beautiful Body-DJ Cabo
TTITLE13=Mercury Blues-Birdy Brooks
TTITLE14=Mary-Coutry Joe
TTITLE15=Der Sonne entgegen-Siverados
TTITLE16=Teddy Bear-DJ Cabo
TTITLE17=Couldn´t Sleep At All-Eddy Gee
EXTD=
EXTT0=
EXTT1=
EXTT2=
EXTT3=
EXTT4=
EXTT5=
EXTT6=
EXTT7=
EXTT8=
EXTT9=
EXTT10=
EXTT11=
EXTT12=
EXTT13=
EXTT14=
EXTT15=
EXTT16=
EXTT17=
PLAYORDER=
